<svg width="64" height="64" viewBox="0 0 64 64" fill="none" xmlns="http://www.w3.org/2000/svg">
<g clip-path="url(#clip0_236_4)">
<path d="M32 4C33.775 4 35.4125 4.9375 36.3125 6.475L63.3125 52.475C64.225 54.025 64.225 55.9375 63.3375 57.4875C62.45 59.0375 60.7875 60 59 60H5.00002C3.21252 60 1.55002 59.0375 0.662525 57.4875C-0.224975 55.9375 -0.212475 54.0125 0.687525 52.475L27.6875 6.475C28.5875 4.9375 30.225 4 32 4ZM32 20C30.3375 20 29 21.3375 29 23V37C29 38.6625 30.3375 40 32 40C33.6625 40 35 38.6625 35 37V23C35 21.3375 33.6625 20 32 20ZM36 48C36 46.9391 35.5786 45.9217 34.8285 45.1716C34.0783 44.4214 33.0609 44 32 44C30.9392 44 29.9217 44.4214 29.1716 45.1716C28.4215 45.9217 28 46.9391 28 48C28 49.0609 28.4215 50.0783 29.1716 50.8284C29.9217 51.5786 30.9392 52 32 52C33.0609 52 34.0783 51.5786 34.8285 50.8284C35.5786 50.0783 36 49.0609 36 48Z" fill="#FB9A41"/>
</g>
<defs>
<clipPath id="clip0_236_4">
<rect width="64" height="64" fill="white"/>
</clipPath>
</defs>
</svg>
