<svg width="64" height="64" viewBox="0 0 64 64" fill="none" xmlns="http://www.w3.org/2000/svg">
<g clip-path="url(#clip0_236_6)">
<path d="M32 64C40.4869 64 48.6263 60.6286 54.6274 54.6274C60.6286 48.6263 64 40.4869 64 32C64 23.5131 60.6286 15.3737 54.6274 9.37258C48.6263 3.37142 40.4869 0 32 0C23.5131 0 15.3737 3.37142 9.37258 9.37258C3.37142 15.3737 0 23.5131 0 32C0 40.4869 3.37142 48.6263 9.37258 54.6274C15.3737 60.6286 23.5131 64 32 64ZM32 16C33.6625 16 35 17.3375 35 19V33C35 34.6625 33.6625 36 32 36C30.3375 36 29 34.6625 29 33V19C29 17.3375 30.3375 16 32 16ZM28 44C28 42.9391 28.4214 41.9217 29.1716 41.1716C29.9217 40.4214 30.9391 40 32 40C33.0609 40 34.0783 40.4214 34.8284 41.1716C35.5786 41.9217 36 42.9391 36 44C36 45.0609 35.5786 46.0783 34.8284 46.8284C34.0783 47.5786 33.0609 48 32 48C30.9391 48 29.9217 47.5786 29.1716 46.8284C28.4214 46.0783 28 45.0609 28 44Z" fill="#FB4C41"/>
</g>
<defs>
<clipPath id="clip0_236_6">
<rect width="64" height="64" fill="white"/>
</clipPath>
</defs>
</svg>
